{
  "accessors": [
    {
      "bufferView": 2,
      "componentType": 5126,
      "count": 4354,
      "max": [
        0.746503472328186,
        0.7812074422836304,
        0.9714943170547485
      ],
      "min": [
        -0.746503472328186,
        -0.039865925908088684,
        -0.9714942574501038
      ],
      "type": "VEC3"
    },
    {
      "bufferView": 2,
      "byteOffset": 52248,
      "componentType": 5126,
      "count": 4354,
      "max": [
        0.9995619058609009,
        1.0,
        0.9999561309814453
      ],
      "min": [
        -0.9995619058609009,
        -1.0,
        -0.9999561309814453
      ],
      "type": "VEC3"
    },
    {
      "bufferView": 1,
      "componentType": 5126,
      "count": 4354,
      "max": [
        0.0,
        0.0
      ],
      "min": [
        0.0,
        0.0
      ],
      "type": "VEC2"
    },
    {
      "bufferView": 0,
      "componentType": 5125,
      "count": 26112,
      "type": "SCALAR"
    },
    {
      "bufferView": 2,
      "byteOffset": 104496,
      "componentType": 5126,
      "count": 2048,
      "max": [
        0.5186072587966919,
        0.1766202598810196,
        0.5186073184013367
      ],
      "min": [
        -0.5186072587966919,
        0.004658571444451809,
        -0.5186072587966919
      ],
      "type": "VEC3"
    },
    {
      "bufferView": 2,
      "byteOffset": 129072,
      "componentType": 5126,
      "count": 2048,
      "max": [
        0.9933306574821472,
        0.9688141942024231,
        0.9933306574821472
      ],
      "min": [
        -0.9933306574821472,
        -0.9777083396911621,
        -0.9933306574821472
      ],
      "type": "VEC3"
    },
    {
      "bufferView": 1,
      "byteOffset": 34832,
      "componentType": 5126,
      "count": 2048,
      "max": [
        0.0,
        0.0
      ],
      "min": [
        0.0,
        0.0
      ],
      "type": "VEC2"
    },
    {
      "bufferView": 0,
      "byteOffset": 104448,
      "componentType": 5125,
      "count": 12288,
      "type": "SCALAR"
    }
  ],
  "asset": {
    "extras": {
      "author": "PatelDev (https://sketchfab.com/PatelDev)",
      "license": "CC-BY-4.0 (http://creativecommons.org/licenses/by/4.0/)",
      "source": "https://sketchfab.com/3d-models/hat-5fd2c9bf3e834e839b26649db7afe4c1",
      "title": "Hat"
    },
    "generator": "Sketchfab-12.68.0",
    "version": "2.0"
  },
  "bufferViews": [
    {
      "buffer": 0,
      "byteLength": 153600,
      "name": "floatBufferViews",
      "target": 34963
    },
    {
      "buffer": 0,
      "byteLength": 51216,
      "byteOffset": 153600,
      "byteStride": 8,
      "name": "floatBufferViews",
      "target": 34962
    },
    {
      "buffer": 0,
      "byteLength": 153648,
      "byteOffset": 204816,
      "byteStride": 12,
      "name": "floatBufferViews",
      "target": 34962
    }
  ],
  "buffers": [
    {
      "byteLength": 358464,
      "uri": "scene.bin"
    }
  ],
  "materials": [
    {
      "doubleSided": true,
      "name": "Material.001",
      "pbrMetallicRoughness": {
        "baseColorFactor": [
          0.8,
          0.213978,
          0.0,
          1.0
        ],
        "metallicFactor": 0.0
      }
    },
    {
      "doubleSided": true,
      "name": "Material.002",
      "pbrMetallicRoughness": {
        "baseColorFactor": [
          0.8,
          0.00480003,
          0.0,
          1.0
        ],
        "metallicFactor": 0.0
      }
    }
  ],
  "meshes": [
    {
      "name": "Object_0",
      "primitives": [
        {
          "attributes": {
            "NORMAL": 1,
            "POSITION": 0,
            "TEXCOORD_0": 2
          },
          "indices": 3,
          "material": 0,
          "mode": 4
        }
      ]
    },
    {
      "name": "Object_1",
      "primitives": [
        {
          "attributes": {
            "NORMAL": 5,
            "POSITION": 4,
            "TEXCOORD_0": 6
          },
          "indices": 7,
          "material": 1,
          "mode": 4
        }
      ]
    }
  ],
  "nodes": [
    {
      "children": [
        1
      ],
      "matrix": [
        1.0,
        0.0,
        0.0,
        0.0,
        0.0,
        2.220446049250313e-16,
        -1.0,
        0.0,
        0.0,
        1.0,
        2.220446049250313e-16,
        0.0,
        0.0,
        0.0,
        0.0,
        1.0
      ],
      "name": "Sketchfab_model"
    },
    {
      "children": [
        2
      ],
      "name": "root"
    },
    {
      "children": [
        3,
        5
      ],
      "matrix": [
        1.0,
        0.0,
        0.0,
        0.0,
        0.0,
        2.220446049250313e-16,
        1.0,
        0.0,
        0.0,
        -1.0,
        2.220446049250313e-16,
        0.0,
        0.0,
        0.0,
        0.0,
        1.0
      ],
      "name": "GLTF_SceneRootNode"
    },
    {
      "children": [
        4
      ],
      "name": "Circle_2"
    },
    {
      "mesh": 0,
      "name": "Object_4"
    },
    {
      "children": [
        6
      ],
      "name": "Circle.001_3"
    },
    {
      "mesh": 1,
      "name": "Object_6"
    }
  ],
  "scene": 0,
  "scenes": [
    {
      "name": "Sketchfab_Scene",
      "nodes": [
        0
      ]
    }
  ]
}
